<mxfile host="app.diagrams.net" modified="2024-06-26T09:12:04.430Z" agent="Mozilla/5.0 (Windows NT 10.0; Win64; x64) AppleWebKit/537.36 (KHTML, like Gecko) Chrome/126.0.0.0 Safari/537.36 Edg/126.0.0.0" etag="EWktfcDlh7FRDEWiTEKS" version="24.6.3" type="github">
  <diagram name="Page-1" id="Ek8pcptoE6rgbOLz60ph">
    <mxGraphModel dx="586" dy="1609" grid="1" gridSize="10" guides="1" tooltips="1" connect="1" arrows="1" fold="1" page="1" pageScale="1" pageWidth="850" pageHeight="1100" math="0" shadow="0">
      <root>
        <mxCell id="0" />
        <mxCell id="1" parent="0" />
      </root>
    </mxGraphModel>
  </diagram>
</mxfile>
